<?xml version="1.0" encoding="UTF-8"?>
<!DOCTYPE svg PUBLIC "-//W3C//DTD SVG 1.1//EN" "http://www.w3.org/Graphics/SVG/1.1/DTD/svg11.dtd">
<!-- Creator: CorelDRAW 2021 (64-Bit) -->
<svg xmlns="http://www.w3.org/2000/svg" xml:space="preserve" width="1.4966in" height="1.4966in" version="1.1" style="shape-rendering:geometricPrecision; text-rendering:geometricPrecision; image-rendering:optimizeQuality; fill-rule:evenodd; clip-rule:evenodd"
viewBox="0 0 51.49 51.49"
 xmlns:xlink="http://www.w3.org/1999/xlink"
 xmlns:xodm="http://www.corel.com/coreldraw/odm/2003">
 <defs>
  <style type="text/css">
   <![CDATA[
    .fil3 {fill:none}
    .fil0 {fill:#FEFEFE}
    .fil2 {fill:#DDD4F8}
    .fil1 {fill:#E0D8FB}
    .fil4 {fill:#FEFEFE;fill-rule:nonzero}
    .fil5 {fill:url(#id1);fill-rule:nonzero}
   ]]>
  </style>
   <clipPath id="id0">
    <path d="M25.74 0c14.22,0 25.74,11.53 25.74,25.74 0,14.22 -11.53,25.74 -25.74,25.74 -14.22,0 -25.74,-11.53 -25.74,-25.74 0,-14.22 11.53,-25.74 25.74,-25.74z"/>
   </clipPath>
  <linearGradient id="id1" gradientUnits="userSpaceOnUse" x1="9.99" y1="25.74" x2="41.49" y2="25.74">
   <stop offset="0" style="stop-opacity:1; stop-color:#5810F2"/>
   <stop offset="0.490196" style="stop-opacity:1; stop-color:#7429DA"/>
   <stop offset="1" style="stop-opacity:1; stop-color:#9042C1"/>
  </linearGradient>
 </defs>
 <g id="Capa_x0020_1">
  <metadata id="CorelCorpID_0Corel-Layer"/>
  <path class="fil0" d="M25.74 0c14.22,0 25.74,11.53 25.74,25.74 0,14.22 -11.53,25.74 -25.74,25.74 -14.22,0 -25.74,-11.53 -25.74,-25.74 0,-14.22 11.53,-25.74 25.74,-25.74z"/>
  <g style="clip-path:url(#id0)">
   <g id="_2813421305616">
    <g>
     <path id="_1" class="fil1" d="M16.8 47c-0.38,-0.1 -0.18,0.12 -0.55,-0.21 -0.29,-0.25 -0.2,-0.25 -0.3,-0.45 0.25,-1.55 2.27,-0.69 0.84,0.65zm-1.92 -2.75c-0.37,2.18 -2.35,-0.2 -0.86,-0.58 0.21,-0.06 -0.1,-0.28 0.52,0.11 0.88,0.54 0.17,0.15 0.35,0.47zm2.38 -0.16c-0.35,-0.01 0.25,0.43 -0.52,-0.1 -0.96,-0.66 0.04,-1.61 0.74,-1.17 0.73,0.47 0.24,0.97 -0.22,1.27zm-14.71 -16.31c0.75,-2.18 2.93,-1.79 3.22,0.06 0.22,1.41 -0.39,3.03 -0.78,4.6 -1.27,5.08 -3.04,-2.88 -2.43,-4.65zm19.07 8.46c1.62,-2.75 10.97,-1.08 11.75,2.27 0.37,1.57 -1.19,1.74 -2,1.76 -2.46,0.08 -4.28,-1.09 -6.5,-2.22 -0.99,-0.5 -2.81,-0.94 -3.25,-1.82zm-8.65 -11.91l-0.85 -0.56c0.66,-1.87 2.36,-0.57 0.85,0.56zm-0.25 -3.75l1.04 0.54c-0.37,1.22 -0.86,1.33 -1.61,0.41l0.57 -0.95zm20.73 6.1c1.06,-2.5 7.8,-2.17 8.09,-0.09 0.39,2.81 -5.82,2.87 -8.09,0.09zm8.63 -14.88c-0.51,1.84 -2.4,0.83 -0.95,-0.55l0.95 0.55zm2.36 0.22c0.08,-0.5 0.25,-0.76 0.67,-1.06 1.61,0.7 0.59,2.17 -0.67,1.06zm-0.68 -4.36c1.19,0.25 0.95,0.91 0.14,1.56l-0.79 -0.66c0.38,-1.4 0.46,-0.79 0.65,-0.9zm-13.09 0.84c0.26,0.54 -0.06,2.47 -0.36,3.25 -0.85,2.18 -1.61,1.34 -3.09,0.81l-0.82 -0.15c-0.68,0.6 0.2,-0.01 -0.41,1.16l-0.52 -0.52c-0.38,1.95 0.97,4.75 0.41,5.75 -0.81,0.1 -0.92,0.12 -1.58,-0.78 -0.42,-0.56 -0.81,-1.14 -1.11,-1.66 -0.8,-1.36 -3.59,-6.28 -0.96,-6.91 1.83,-0.44 2.37,1.77 3.03,2.6l0.48 -2.05c0.05,-0.71 -0.31,-1.41 -0.43,-2.17 -0.13,-0.89 -0.05,-1.53 -0.15,-2.37 -0.99,-0.02 -2.63,1.06 -3.12,1.11 -5.53,4.7 0.11,9.03 -0.32,14.36 -0.3,3.76 -2.83,5.5 -5.31,1.67 -1.75,-2.7 -1.02,-6.16 -1.44,-7.14 -0.99,-0.78 -1.07,0.57 -2.44,-0.28l-0.81 -1c-0.42,-1.16 0.32,-0.8 -0.33,-1.15 -2.31,2.01 -2.65,3.84 -1.96,5.95 2.83,8.63 -1.38,12.37 -4.07,3.6 -0.31,-1 -0.46,-2.16 -1.02,-2.96 -3.08,4.88 -5.89,14.18 -3.64,19.94 0.81,2.09 1.49,1.68 0.9,2.66l0.5 -0.19 0.33 -0.12c1.33,-0.6 4.28,-1.96 4.91,-3.09 0.87,-1.59 1.09,-5.81 2.52,-6.57 0.89,0.71 0.09,1.62 -0.27,2.8 -0.22,0.72 -0.72,2.28 -0.66,3.02 1.16,-0.52 4.55,-3.17 5.75,-4.17 2.15,-1.79 0.39,-5.77 2.16,-6.3 0.48,0.47 0.37,0.09 0.34,0.98l-0.26 3.37c1.02,-0.47 4.55,-3.73 5.7,-4.75 1.51,-1.34 1.43,-1.03 1.5,-2.84 0.03,-0.84 -0.15,-2.94 1.14,-3.13 0.52,0.54 0.3,0.17 0.29,0.77l-0.44 2.64c0.06,-0.02 0.18,-0.11 0.17,-0.07 -0.09,0.64 5.27,-5.44 5.66,-5.89 0.43,-0.51 0.97,-1.13 1.38,-1.69 1.28,-1.76 -0.61,-4.25 1.09,-5.63 0.79,0.52 0.54,0.87 0.46,1.67 -0.03,0.28 -0.08,0.71 -0.07,0.97 0,0.63 -0.01,0.46 0.14,0.88 0.68,-0.53 2.28,-2.59 2.98,-3.38 0.73,-0.82 2.09,-2.93 3.15,-2.35 0.09,1.01 -3.91,4.76 -4.87,6.14 1.09,0.08 1.16,-0.52 1.99,0 -0.1,1.1 -1.61,1.19 -2.56,1.4 -1.28,0.29 -1.88,1.51 -2.9,2.73 -1.87,2.24 -3.78,4.08 -5.52,6.07 1.09,0.13 2.01,-0.61 2.34,0.25 0.06,0.74 -0.23,0.67 -1,0.8 -0.51,0.09 -1.01,0.14 -1.56,0.12 -1.63,-0.05 -0.78,-0.14 -2.92,1.7 -1.8,1.54 -3.91,3.1 -5.43,4.62 1.09,0.28 3.3,-0.5 3.85,0.86 -0.76,0.79 -0.83,0.22 -3.28,0.34 -2.04,0.1 -1.45,-0.5 -3.24,0.97 -1.88,1.53 -3.93,3.15 -5.8,4.43 1.37,0.63 6.15,-0.41 5.41,0.78 -0.17,0.27 -0.05,0.19 -0.26,0.32 -0.74,0.45 -4.77,0.19 -5.52,0.05 -1.62,-0.28 -1.67,0.17 -2.95,0.84l-3.05 1.39c1.18,0.56 2.16,2.49 5.57,4.61 2.11,1.31 4.32,2.23 6.56,2.83 2.97,0.79 10.05,1.92 11.38,-1.6 -0.24,-0.51 -0.52,-1.02 -1.19,-1.44 -0.54,-0.2 -0.39,-0.16 -0.88,-0.47 -0.15,-0.1 -0.41,-0.28 -0.52,-0.35 -0.06,-0.04 -0.11,-0.07 -0.17,-0.1l-0.33 -0.16c-0.54,0.48 -0.2,0.01 -0.11,1.19 0,0.05 0.01,0.11 0.02,0.16 0,0.05 0.01,0.11 0,0.16 -0,0.05 -0,0.11 -0.01,0.17 -0.14,0.92 -0.97,1.45 -1.63,1.53 -1.23,0.15 -1.77,-0.84 -2.22,-1.42l-0.46 -0.58c-0.39,-0.69 -0.12,-0.16 -0.22,-0.55 0.37,-0.1 0.19,-0.02 0.59,-0.22 0.36,-0.18 0.19,0.03 0.56,-0.38 0.45,-0.49 0.46,-0.9 0.57,-1.4l2.39 0.52c0.04,-0.02 0.12,-0.04 0.18,-0.06 -0.79,-0.72 -1.81,-1.56 -2.2,-2.42 -0.4,-0.9 -0.25,-2.43 1.09,-2.78 3.73,-0.98 8.72,9.27 12.92,2.78 0.88,-1.36 2.83,-5.99 2.88,-6.99 -1.75,-0.77 -12.97,-2.5 -9.1,-6 3.3,-2.99 9.91,2.53 12.31,2.67 1.65,-2.23 3.45,-5.57 4.2,-8.09 -2.83,-1.38 -7.98,-0.46 -9.1,-4.53 0.74,-1.8 2.94,-1.96 4.46,-1.82 2.9,0.27 4.15,1.86 5.28,1.09 2.65,-1.8 1.77,-7.64 1.95,-9.51 0.05,-0.48 -0.01,-0.23 0.13,-0.6l-0.3 -1.42c-0.25,-2.01 -0.24,-3.2 -2.15,-4.08 -3.8,-1.74 -14.57,-2.63 -14.62,1.53 -0.01,1.22 0.41,1.61 0.09,3.29z"/>
     <path class="fil1" d="M25.08 47.31c-0.22,-0.69 -1.51,-1.44 -2.23,-1.95 -0.06,0.02 -0.14,0.05 -0.18,0.06l-2.39 -0.52c-0.11,0.5 -0.12,0.91 -0.57,1.4 -0.37,0.4 -0.2,0.2 -0.56,0.38 -0.4,0.2 -0.21,0.12 -0.59,0.22 0.1,0.38 -0.16,-0.14 0.22,0.55l0.46 0.58c0.45,0.57 0.99,1.57 2.22,1.42 0.66,-0.08 1.5,-0.62 1.63,-1.53 0.01,-0.05 0.01,-0.11 0.01,-0.17 0,-0.05 -0,-0.11 -0,-0.16 -0,-0.05 -0.01,-0.11 -0.02,-0.16 -0.09,-1.18 -0.44,-0.71 0.11,-1.19l0.33 0.16c0.05,0.03 0.11,0.06 0.17,0.1 0.11,0.07 0.36,0.25 0.52,0.35 0.49,0.31 0.34,0.27 0.88,0.47z"/>
     <path class="fil2" d="M23.79 36.23c2.13,1.41 6.84,3.91 8.57,2.36 -1.42,-1.39 -2.19,-1.98 -4.28,-2.44 -1.45,-0.32 -3.35,-0.34 -4.3,0.09z"/>
     <path class="fil1" d="M13.59 10.61c-0.47,0.91 -1.49,1.55 -2.2,2.4 0.65,0.35 -0.08,-0.01 0.33,1.15l0.81 1c1.37,0.85 1.46,-0.5 2.44,0.28 0.33,-1.31 -0.01,-4.16 -0.78,-5.15 -0.76,0.78 -0.13,0.18 -0.61,0.32z"/>
     <path class="fil2" d="M22.43 10.42c-0.64,1.31 -0.21,1.9 0.42,2.99 0.46,0.79 1.04,2.01 1.64,2.68 -0.06,-1.87 -0.02,-5.49 -2.06,-5.68z"/>
     <path class="fil2" d="M35.01 26.58c1.97,1.22 4.13,1.77 5.5,0.09 -1.83,-1.02 -4.43,-1.03 -5.5,-0.09z"/>
     <path class="fil2" d="M4.06 31.57c0.53,-1.13 1.3,-3.45 0.12,-4.27 -0.75,0.58 -0.78,1.01 -0.66,1.97 0.11,0.94 0.05,1.46 0.54,2.29z"/>
     <path class="fil1" d="M25.26 12.03l0.23 1 0.52 0.52c0.61,-1.17 -0.27,-0.56 0.41,-1.16l0.82 0.15 -1.49 -2.56 -0.48 2.05z"/>
    </g>
   </g>
  </g>
  <path class="fil3" d="M25.74 0c14.22,0 25.74,11.53 25.74,25.74 0,14.22 -11.53,25.74 -25.74,25.74 -14.22,0 -25.74,-11.53 -25.74,-25.74 0,-14.22 11.53,-25.74 25.74,-25.74z"/>
  <g>
   <path class="fil4" d="M16.74 44.26l0.71 -1.68 0 0 0.2 0.09 0.21 0.08 0.21 0.08 0.21 0.08 0.22 0.08 0.22 0.07 0.23 0.07 0.23 0.07 0.23 0.07 0.24 0.06 0.24 0.06 0.24 0.06 0.25 0.06 0.25 0.05 0.25 0.05 0.26 0.05 0.26 0.04 0.27 0.04 0.27 0.04 0.27 0.04 0.28 0.03 0.28 0.03 0.28 0.03 0.29 0.02 0.29 0.02 0.29 0.02 0.3 0.02 0.3 0.01 0.31 0.01 0.31 0.01 0.31 0 0.32 0 0 1.83 -0.33 -0 -0.33 -0 -0.33 -0.01 -0.32 -0.01 -0.32 -0.01 -0.32 -0.02 -0.31 -0.02 -0.31 -0.02 -0.31 -0.03 -0.3 -0.03 -0.3 -0.03 -0.3 -0.04 -0.29 -0.04 -0.29 -0.04 -0.29 -0.04 -0.28 -0.05 -0.28 -0.05 -0.28 -0.05 -0.27 -0.06 -0.27 -0.06 -0.27 -0.06 -0.26 -0.07 -0.26 -0.07 -0.26 -0.07 -0.25 -0.08 -0.25 -0.08 -0.25 -0.08 -0.24 -0.09 -0.24 -0.09 -0.24 -0.09 -0.23 -0.1 -0.23 -0.1 0 0zm-5.59 -4.27l1.45 -1.09 0 0 0.1 0.14 0.1 0.14 0.11 0.13 0.11 0.13 0.11 0.13 0.12 0.13 0.12 0.13 0.12 0.13 0.13 0.13 0.13 0.12 0.13 0.12 0.14 0.12 0.14 0.12 0.14 0.12 0.15 0.12 0.15 0.12 0.15 0.11 0.16 0.11 0.16 0.11 0.16 0.11 0.17 0.11 0.17 0.11 0.17 0.11 0.18 0.1 0.18 0.1 0.18 0.1 0.19 0.1 0.19 0.1 0.19 0.1 0.2 0.09 0.2 0.09 0.2 0.09 -0.71 1.68 -0.22 -0.1 -0.22 -0.1 -0.22 -0.1 -0.21 -0.11 -0.21 -0.11 -0.21 -0.11 -0.21 -0.11 -0.2 -0.11 -0.2 -0.12 -0.2 -0.12 -0.19 -0.12 -0.19 -0.12 -0.19 -0.13 -0.18 -0.13 -0.18 -0.13 -0.18 -0.13 -0.17 -0.13 -0.17 -0.14 -0.17 -0.14 -0.16 -0.14 -0.16 -0.14 -0.16 -0.15 -0.15 -0.15 -0.15 -0.15 -0.15 -0.15 -0.14 -0.15 -0.14 -0.16 -0.14 -0.16 -0.13 -0.16 -0.13 -0.16 -0.13 -0.16 -0.12 -0.17 0 0zm-2.06 -5.77l1.8 0 -0 -0.04 0.01 0.16 0.01 0.15 0.01 0.15 0.02 0.15 0.02 0.15 0.02 0.15 0.02 0.15 0.03 0.15 0.03 0.15 0.03 0.15 0.04 0.15 0.04 0.15 0.04 0.15 0.05 0.15 0.05 0.15 0.05 0.15 0.05 0.15 0.06 0.15 0.06 0.15 0.06 0.15 0.07 0.14 0.07 0.14 0.07 0.14 0.08 0.14 0.08 0.14 0.08 0.14 0.09 0.14 0.09 0.14 0.09 0.14 0.09 0.14 0.1 0.14 0.1 0.14 -1.45 1.09 -0.12 -0.17 -0.11 -0.17 -0.11 -0.17 -0.11 -0.17 -0.1 -0.17 -0.1 -0.17 -0.1 -0.17 -0.09 -0.17 -0.09 -0.17 -0.09 -0.17 -0.08 -0.17 -0.08 -0.18 -0.08 -0.18 -0.07 -0.18 -0.07 -0.18 -0.07 -0.18 -0.06 -0.18 -0.06 -0.18 -0.06 -0.18 -0.05 -0.18 -0.05 -0.18 -0.04 -0.18 -0.04 -0.18 -0.04 -0.19 -0.03 -0.19 -0.03 -0.19 -0.03 -0.19 -0.02 -0.19 -0.02 -0.19 -0.02 -0.19 -0.01 -0.19 -0.01 -0.19 -0 -0.04zm0 0.04l-0 -0.02 0 -0.02 0 0.04zm0.6 -1.46l1.27 1.3 0 0 -0.01 0.01 -0.01 0.01 -0.01 0.01 -0.01 0.01 -0.01 0.01 -0 0.01 -0 0.01 -0 0.01 -0 0 -0 0.01 -0 0.01 -0 0 -0 0 -0 0 -0 0 -0 0 -0 0 -0 0 -0 0 -0 0 -0 0 -0 0 -0 0 -0 0 -0 0 -0 0 -0 0 -0 0 -0 0 -0 0 -0 0 0 0 -1.8 0 0 -0.05 0 -0.05 0 -0.05 0 -0.05 0.01 -0.05 0.01 -0.05 0.01 -0.05 0.01 -0.05 0.01 -0.05 0.01 -0.05 0.01 -0.05 0.01 -0.05 0.02 -0.05 0.02 -0.05 0.02 -0.05 0.02 -0.05 0.02 -0.04 0.02 -0.05 0.02 -0.04 0.02 -0.04 0.03 -0.04 0.02 -0.04 0.03 -0.04 0.03 -0.04 0.03 -0.04 0.03 -0.04 0.03 -0.04 0.03 -0.04 0.03 -0.04 0.03 -0.04 0.03 -0.03 0.03 -0.03 0 0zm1.45 -0.62l0 1.83 0 0 -0.01 0 -0.01 0 -0.01 0 -0.01 0 -0.01 0 -0.01 0 -0.01 0 -0.01 0 -0 0 -0 0 -0 0 -0 0 -0 0 -0 0 -0 0 -0 0 -0 0 -0 0 -0 0 -0 0 -0 0 -0 0 -0.01 0 -0 0 -0.01 0 -0.01 0 -0.01 0 -0.01 0.01 -0.01 0.01 -0.01 0 -0.01 0.01 -0.01 0.01 -1.27 -1.3 0.04 -0.04 0.04 -0.03 0.04 -0.03 0.04 -0.03 0.04 -0.03 0.04 -0.03 0.04 -0.03 0.04 -0.03 0.04 -0.03 0.04 -0.03 0.04 -0.03 0.04 -0.03 0.04 -0.02 0.05 -0.02 0.05 -0.02 0.05 -0.02 0.05 -0.02 0.05 -0.02 0.05 -0.02 0.05 -0.02 0.05 -0.01 0.05 -0.01 0.05 -0.01 0.05 -0.01 0.05 -0.01 0.05 -0.01 0.05 -0.01 0.05 -0.01 0.05 -0 0.05 -0 0.05 -0 0.05 -0 0 0zm6.58 1.83l-6.58 0 0 -1.83 6.58 0 0 0 0 1.83zm1.62 -1.41l-1 1.53 0 0 -0 -0 -0.01 -0 -0.01 -0 -0.01 -0 -0.01 -0 -0.01 -0 -0.01 -0 -0.01 -0 -0.01 -0.01 -0.01 -0 -0.01 -0 -0.02 -0.01 -0.02 -0 -0.02 -0.01 -0.02 -0 -0.02 -0 -0.02 -0 -0.02 -0 -0.02 -0 -0.02 -0 -0.03 -0 -0.02 -0 -0.03 -0 -0.03 -0 -0.03 -0 -0.03 -0 -0.03 -0 -0.03 -0 -0.03 -0 -0.03 -0 -0.04 -0 -0.03 -0 0 -1.83 0.06 0 0.05 0 0.06 0 0.05 0 0.05 0 0.05 0 0.05 0 0.05 0.01 0.05 0.01 0.05 0.01 0.05 0.01 0.05 0.01 0.05 0.01 0.05 0.01 0.05 0.01 0.05 0.01 0.05 0.01 0.05 0.01 0.05 0.01 0.05 0.02 0.05 0.02 0.05 0.02 0.05 0.02 0.05 0.02 0.05 0.02 0.05 0.02 0.05 0.02 0.05 0.02 0.05 0.03 0.05 0.03 0.04 0.03 0.05 0.03 0 0zm1 1.02l-1.59 0.86 0.07 0.12 -0.01 -0.02 -0.01 -0.02 -0.02 -0.02 -0.01 -0.02 -0.01 -0.02 -0.02 -0.02 -0.02 -0.02 -0.01 -0.02 -0.01 -0.02 -0.01 -0.02 -0.02 -0.02 -0.02 -0.02 -0.01 -0.01 -0.02 -0.02 -0.02 -0.02 -0.01 -0.01 -0.02 -0.01 -0.02 -0.02 -0.02 -0.01 -0.02 -0.01 -0.02 -0.01 -0.02 -0.01 -0.02 -0.01 -0.02 -0.01 -0.01 -0.01 -0.02 -0.01 -0.02 -0.01 -0.01 -0.01 -0.02 -0.01 -0.02 -0.01 -0.02 -0.01 -0.02 -0.01 1 -1.53 0.03 0.02 0.03 0.02 0.03 0.02 0.03 0.02 0.03 0.03 0.03 0.02 0.03 0.02 0.03 0.03 0.03 0.03 0.03 0.03 0.03 0.03 0.03 0.03 0.03 0.03 0.03 0.03 0.03 0.03 0.03 0.03 0.03 0.03 0.03 0.03 0.03 0.03 0.03 0.03 0.03 0.03 0.03 0.03 0.03 0.03 0.03 0.03 0.03 0.03 0.03 0.03 0.03 0.03 0.03 0.03 0.03 0.03 0.02 0.03 0.03 0.03 0.02 0.03 0.07 0.12zm-0.07 -0.12l0.04 0.06 0.03 0.06 -0.07 -0.12zm1.08 1.44l-1.25 1.32 0 0 -0.05 -0.05 -0.05 -0.05 -0.05 -0.05 -0.05 -0.05 -0.05 -0.05 -0.05 -0.05 -0.05 -0.05 -0.05 -0.05 -0.05 -0.05 -0.05 -0.05 -0.05 -0.05 -0.05 -0.05 -0.05 -0.06 -0.04 -0.05 -0.04 -0.05 -0.04 -0.06 -0.04 -0.06 -0.04 -0.06 -0.04 -0.06 -0.04 -0.06 -0.04 -0.06 -0.04 -0.06 -0.04 -0.06 -0.04 -0.06 -0.04 -0.06 -0.04 -0.06 -0.04 -0.06 -0.03 -0.06 -0.03 -0.06 -0.03 -0.06 -0.03 -0.06 -0.03 -0.06 1.59 -0.86 0.02 0.04 0.02 0.04 0.02 0.04 0.02 0.04 0.02 0.04 0.02 0.04 0.03 0.04 0.03 0.04 0.03 0.04 0.03 0.04 0.03 0.04 0.03 0.04 0.03 0.04 0.03 0.04 0.03 0.04 0.03 0.04 0.03 0.04 0.03 0.04 0.03 0.04 0.03 0.04 0.03 0.04 0.04 0.04 0.04 0.04 0.04 0.04 0.04 0.04 0.04 0.04 0.04 0.04 0.04 0.04 0.04 0.04 0.04 0.04 0.04 0.04 0.04 0.04 0 0zm1.67 1l-0.61 1.73 0 0 -0.09 -0.03 -0.08 -0.03 -0.08 -0.03 -0.08 -0.03 -0.08 -0.04 -0.08 -0.04 -0.08 -0.04 -0.08 -0.04 -0.08 -0.04 -0.08 -0.04 -0.08 -0.04 -0.08 -0.04 -0.08 -0.04 -0.07 -0.04 -0.07 -0.04 -0.07 -0.04 -0.07 -0.04 -0.07 -0.05 -0.07 -0.05 -0.07 -0.05 -0.07 -0.05 -0.07 -0.05 -0.07 -0.05 -0.07 -0.05 -0.06 -0.05 -0.06 -0.05 -0.06 -0.05 -0.06 -0.05 -0.06 -0.05 -0.06 -0.06 -0.06 -0.06 -0.06 -0.06 1.25 -1.32 0.04 0.04 0.04 0.04 0.04 0.04 0.04 0.04 0.04 0.04 0.04 0.03 0.04 0.03 0.04 0.03 0.04 0.03 0.05 0.03 0.05 0.03 0.05 0.03 0.05 0.03 0.05 0.03 0.05 0.03 0.05 0.03 0.05 0.03 0.05 0.03 0.05 0.03 0.06 0.03 0.06 0.03 0.06 0.03 0.06 0.03 0.06 0.03 0.06 0.03 0.06 0.03 0.06 0.03 0.06 0.03 0.06 0.03 0.07 0.03 0.07 0.03 0.07 0.03 0 0zm2.75 0.4l0 1.83 0 0 -0.12 -0 -0.12 -0 -0.12 -0 -0.12 -0 -0.12 -0 -0.11 -0.01 -0.11 -0.01 -0.11 -0.01 -0.11 -0.01 -0.11 -0.01 -0.11 -0.01 -0.11 -0.01 -0.11 -0.01 -0.11 -0.01 -0.11 -0.01 -0.11 -0.02 -0.11 -0.02 -0.1 -0.02 -0.1 -0.02 -0.1 -0.02 -0.1 -0.02 -0.1 -0.02 -0.1 -0.02 -0.1 -0.02 -0.1 -0.02 -0.1 -0.03 -0.09 -0.03 -0.09 -0.03 -0.09 -0.03 -0.09 -0.03 -0.09 -0.03 -0.09 -0.03 0.61 -1.73 0.06 0.02 0.07 0.02 0.07 0.02 0.07 0.02 0.07 0.02 0.07 0.02 0.07 0.02 0.07 0.02 0.08 0.02 0.08 0.02 0.08 0.02 0.08 0.02 0.08 0.02 0.08 0.01 0.08 0.01 0.08 0.01 0.09 0.01 0.09 0.01 0.09 0.01 0.09 0.01 0.09 0.01 0.09 0.01 0.1 0.01 0.1 0.01 0.1 0.01 0.1 0.01 0.1 0 0.1 0 0.1 0 0.1 0 0.11 0 0.11 0 0 0zm4.1 -0.83l0.94 1.57 0 0 -0.12 0.07 -0.12 0.07 -0.12 0.07 -0.13 0.06 -0.13 0.06 -0.13 0.06 -0.13 0.06 -0.14 0.05 -0.14 0.05 -0.14 0.05 -0.14 0.05 -0.15 0.04 -0.15 0.04 -0.15 0.04 -0.15 0.04 -0.16 0.03 -0.16 0.03 -0.16 0.03 -0.16 0.03 -0.17 0.03 -0.17 0.02 -0.17 0.02 -0.17 0.02 -0.18 0.02 -0.18 0.02 -0.18 0.01 -0.18 0.01 -0.19 0.01 -0.19 0.01 -0.19 0 -0.19 0 -0.2 0 0 -1.83 0.18 -0 0.18 -0 0.17 -0 0.17 -0.01 0.17 -0.01 0.16 -0.01 0.16 -0.01 0.16 -0.01 0.15 -0.01 0.15 -0.02 0.15 -0.02 0.14 -0.02 0.14 -0.02 0.14 -0.02 0.13 -0.02 0.13 -0.03 0.13 -0.03 0.12 -0.03 0.12 -0.03 0.12 -0.03 0.11 -0.03 0.11 -0.04 0.11 -0.04 0.1 -0.04 0.1 -0.04 0.1 -0.04 0.09 -0.04 0.09 -0.04 0.09 -0.04 0.08 -0.04 0.08 -0.05 0.08 -0.05 0 0zm1.11 -1.83l1.8 0 0 0 -0 0.13 -0.01 0.13 -0.01 0.13 -0.01 0.13 -0.02 0.13 -0.02 0.13 -0.03 0.13 -0.03 0.12 -0.03 0.12 -0.04 0.12 -0.04 0.12 -0.05 0.12 -0.05 0.12 -0.05 0.11 -0.06 0.11 -0.06 0.11 -0.07 0.11 -0.07 0.11 -0.07 0.1 -0.08 0.1 -0.08 0.1 -0.08 0.1 -0.09 0.09 -0.09 0.09 -0.09 0.09 -0.1 0.09 -0.1 0.08 -0.1 0.08 -0.1 0.08 -0.11 0.08 -0.11 0.07 -0.11 0.07 -0.94 -1.57 0.08 -0.05 0.07 -0.05 0.07 -0.05 0.07 -0.05 0.06 -0.05 0.06 -0.05 0.06 -0.05 0.05 -0.05 0.05 -0.05 0.05 -0.05 0.05 -0.05 0.04 -0.05 0.04 -0.05 0.04 -0.05 0.04 -0.05 0.03 -0.05 0.03 -0.05 0.03 -0.06 0.03 -0.06 0.02 -0.06 0.02 -0.06 0.02 -0.06 0.02 -0.06 0.02 -0.06 0.02 -0.06 0.01 -0.06 0.01 -0.07 0.01 -0.07 0.01 -0.07 0.01 -0.07 0 -0.07 0 -0.08 0 0zm-0.54 -1.27l1.21 -1.36 0 0 0.07 0.06 0.07 0.06 0.06 0.07 0.06 0.07 0.06 0.07 0.06 0.07 0.06 0.07 0.05 0.07 0.05 0.07 0.05 0.08 0.05 0.08 0.05 0.08 0.04 0.08 0.04 0.08 0.04 0.08 0.04 0.08 0.04 0.08 0.03 0.09 0.03 0.09 0.03 0.09 0.03 0.09 0.02 0.09 0.02 0.09 0.02 0.09 0.02 0.09 0.01 0.09 0.01 0.09 0.01 0.09 0.01 0.09 0.01 0.09 0 0.09 0 0.09 -1.8 0 -0 -0.05 -0 -0.05 -0 -0.05 -0 -0.05 -0.01 -0.05 -0.01 -0.05 -0.01 -0.04 -0.01 -0.04 -0.01 -0.04 -0.01 -0.04 -0.01 -0.04 -0.01 -0.04 -0.01 -0.04 -0.01 -0.04 -0.01 -0.04 -0.02 -0.04 -0.02 -0.04 -0.02 -0.04 -0.02 -0.04 -0.02 -0.04 -0.02 -0.04 -0.02 -0.04 -0.02 -0.03 -0.02 -0.04 -0.03 -0.03 -0.03 -0.03 -0.03 -0.03 -0.03 -0.03 -0.03 -0.03 -0.03 -0.03 -0.03 -0.03 -0.04 -0.03 0 0zm-2.36 -1.19l0.55 -1.75 0 0 0.12 0.04 0.12 0.04 0.12 0.04 0.12 0.04 0.11 0.04 0.11 0.04 0.11 0.04 0.11 0.04 0.11 0.04 0.11 0.04 0.1 0.05 0.1 0.05 0.1 0.05 0.1 0.05 0.1 0.05 0.09 0.05 0.09 0.05 0.09 0.05 0.09 0.05 0.09 0.05 0.09 0.05 0.08 0.05 0.08 0.05 0.08 0.05 0.08 0.05 0.08 0.06 0.08 0.06 0.07 0.06 0.07 0.06 0.07 0.06 0.07 0.06 0.07 0.06 -1.21 1.36 -0.04 -0.03 -0.04 -0.04 -0.04 -0.04 -0.04 -0.04 -0.05 -0.04 -0.05 -0.04 -0.05 -0.04 -0.05 -0.04 -0.06 -0.04 -0.06 -0.04 -0.06 -0.04 -0.06 -0.04 -0.07 -0.04 -0.07 -0.04 -0.07 -0.04 -0.07 -0.04 -0.08 -0.04 -0.08 -0.04 -0.08 -0.04 -0.08 -0.04 -0.08 -0.04 -0.09 -0.04 -0.09 -0.04 -0.09 -0.04 -0.09 -0.04 -0.1 -0.04 -0.1 -0.04 -0.1 -0.04 -0.1 -0.04 -0.1 -0.04 -0.11 -0.04 -0.11 -0.04 0 0zm-4.84 -1.23l0.37 -1.8 -0.01 -0 0.19 0.04 0.19 0.04 0.19 0.04 0.19 0.04 0.18 0.04 0.18 0.04 0.18 0.04 0.18 0.04 0.17 0.04 0.17 0.04 0.17 0.04 0.17 0.04 0.17 0.04 0.16 0.04 0.16 0.04 0.16 0.04 0.16 0.04 0.15 0.04 0.15 0.04 0.15 0.04 0.15 0.04 0.14 0.04 0.14 0.04 0.14 0.04 0.14 0.04 0.14 0.04 0.13 0.04 0.13 0.04 0.13 0.04 0.13 0.04 0.12 0.04 0.12 0.04 -0.55 1.75 -0.11 -0.04 -0.12 -0.04 -0.12 -0.04 -0.12 -0.04 -0.12 -0.04 -0.12 -0.04 -0.13 -0.04 -0.13 -0.04 -0.13 -0.04 -0.14 -0.04 -0.14 -0.04 -0.14 -0.04 -0.14 -0.04 -0.15 -0.04 -0.15 -0.04 -0.15 -0.04 -0.15 -0.04 -0.15 -0.04 -0.16 -0.04 -0.16 -0.04 -0.16 -0.04 -0.16 -0.04 -0.17 -0.04 -0.17 -0.04 -0.17 -0.04 -0.17 -0.04 -0.18 -0.04 -0.18 -0.04 -0.18 -0.04 -0.18 -0.04 -0.19 -0.04 -0.19 -0.04 -0.01 -0zm0.01 0l-0.01 -0 0.02 0 -0.01 -0zm-6.97 -2.28l0.77 -1.66 0 -0 0.17 0.08 0.17 0.08 0.17 0.08 0.18 0.08 0.18 0.08 0.18 0.08 0.18 0.08 0.18 0.07 0.19 0.07 0.19 0.07 0.19 0.07 0.19 0.07 0.2 0.07 0.2 0.07 0.2 0.07 0.2 0.07 0.21 0.07 0.21 0.07 0.21 0.06 0.21 0.06 0.22 0.06 0.22 0.06 0.22 0.06 0.22 0.06 0.23 0.06 0.23 0.06 0.23 0.06 0.23 0.06 0.23 0.06 0.24 0.05 0.24 0.05 0.24 0.05 -0.37 1.8 -0.25 -0.05 -0.25 -0.06 -0.25 -0.06 -0.25 -0.06 -0.24 -0.06 -0.24 -0.06 -0.24 -0.06 -0.24 -0.06 -0.23 -0.06 -0.23 -0.06 -0.23 -0.07 -0.23 -0.07 -0.23 -0.07 -0.22 -0.07 -0.22 -0.07 -0.22 -0.07 -0.22 -0.07 -0.21 -0.07 -0.21 -0.07 -0.21 -0.07 -0.21 -0.08 -0.21 -0.08 -0.2 -0.08 -0.2 -0.08 -0.2 -0.08 -0.2 -0.08 -0.19 -0.08 -0.19 -0.08 -0.19 -0.08 -0.19 -0.09 -0.19 -0.09 -0.18 -0.09 0 -0zm-4.62 -3.89l1.49 -1.03 0 0 0.08 0.12 0.09 0.12 0.09 0.12 0.09 0.12 0.09 0.12 0.1 0.12 0.1 0.11 0.1 0.11 0.1 0.11 0.1 0.11 0.11 0.11 0.11 0.11 0.11 0.11 0.11 0.11 0.12 0.1 0.12 0.1 0.12 0.1 0.13 0.1 0.13 0.1 0.13 0.1 0.13 0.1 0.14 0.09 0.14 0.09 0.14 0.09 0.14 0.09 0.15 0.09 0.15 0.09 0.15 0.09 0.15 0.08 0.16 0.08 0.16 0.08 0.16 0.08 -0.77 1.66 -0.18 -0.09 -0.18 -0.09 -0.18 -0.1 -0.18 -0.1 -0.17 -0.1 -0.17 -0.1 -0.17 -0.1 -0.17 -0.1 -0.16 -0.11 -0.16 -0.11 -0.16 -0.11 -0.16 -0.11 -0.15 -0.11 -0.15 -0.12 -0.15 -0.12 -0.15 -0.12 -0.14 -0.12 -0.14 -0.12 -0.14 -0.13 -0.14 -0.13 -0.13 -0.13 -0.13 -0.13 -0.13 -0.13 -0.12 -0.14 -0.12 -0.14 -0.12 -0.14 -0.12 -0.14 -0.11 -0.14 -0.11 -0.15 -0.11 -0.15 -0.1 -0.15 -0.1 -0.15 0 0zm-1.62 -6.03l1.8 0 0 0 0 0.19 0 0.19 0.01 0.19 0.01 0.19 0.01 0.18 0.01 0.18 0.02 0.18 0.02 0.18 0.02 0.17 0.02 0.17 0.03 0.17 0.03 0.17 0.03 0.16 0.04 0.16 0.04 0.16 0.04 0.16 0.04 0.15 0.04 0.15 0.05 0.15 0.05 0.15 0.05 0.15 0.05 0.14 0.06 0.14 0.06 0.14 0.06 0.14 0.06 0.14 0.07 0.13 0.07 0.13 0.07 0.13 0.07 0.13 0.08 0.12 0.08 0.12 -1.49 1.03 -0.1 -0.16 -0.1 -0.16 -0.09 -0.16 -0.09 -0.16 -0.09 -0.17 -0.08 -0.17 -0.08 -0.17 -0.08 -0.17 -0.07 -0.17 -0.07 -0.18 -0.07 -0.18 -0.06 -0.18 -0.06 -0.18 -0.06 -0.18 -0.05 -0.19 -0.05 -0.19 -0.05 -0.19 -0.05 -0.19 -0.04 -0.19 -0.04 -0.2 -0.04 -0.2 -0.03 -0.2 -0.03 -0.2 -0.03 -0.2 -0.02 -0.21 -0.02 -0.21 -0.02 -0.21 -0.01 -0.21 -0.01 -0.21 -0.01 -0.22 -0 -0.22 -0 -0.22 0 0zm1.97 -6.35l1.46 1.07 0 0 -0.1 0.15 -0.1 0.15 -0.09 0.15 -0.09 0.15 -0.09 0.15 -0.08 0.15 -0.08 0.15 -0.08 0.15 -0.07 0.16 -0.07 0.16 -0.07 0.16 -0.07 0.16 -0.06 0.16 -0.06 0.16 -0.06 0.16 -0.05 0.16 -0.05 0.16 -0.05 0.17 -0.04 0.17 -0.04 0.17 -0.04 0.17 -0.03 0.17 -0.03 0.17 -0.03 0.17 -0.02 0.18 -0.02 0.18 -0.02 0.18 -0.01 0.18 -0.01 0.18 -0.01 0.18 -0 0.18 -0 0.19 -1.8 0 0 -0.22 0.01 -0.22 0.01 -0.22 0.01 -0.22 0.02 -0.21 0.02 -0.21 0.02 -0.21 0.03 -0.21 0.03 -0.21 0.04 -0.21 0.04 -0.21 0.04 -0.21 0.05 -0.2 0.05 -0.2 0.06 -0.2 0.06 -0.2 0.06 -0.2 0.07 -0.2 0.07 -0.2 0.08 -0.19 0.08 -0.19 0.08 -0.19 0.09 -0.19 0.09 -0.19 0.09 -0.19 0.1 -0.18 0.1 -0.18 0.11 -0.18 0.11 -0.18 0.11 -0.18 0.12 -0.18 0.12 -0.17 0 0zm5.41 -4.31l0.72 1.68 0 0 -0.19 0.09 -0.19 0.09 -0.18 0.09 -0.18 0.09 -0.18 0.09 -0.18 0.1 -0.17 0.1 -0.17 0.1 -0.17 0.1 -0.16 0.1 -0.16 0.1 -0.16 0.11 -0.16 0.11 -0.15 0.11 -0.15 0.11 -0.15 0.11 -0.14 0.12 -0.14 0.12 -0.14 0.12 -0.14 0.12 -0.13 0.12 -0.13 0.13 -0.13 0.13 -0.12 0.13 -0.12 0.13 -0.12 0.13 -0.12 0.14 -0.11 0.14 -0.11 0.14 -0.11 0.14 -0.11 0.14 -0.1 0.15 -1.46 -1.07 0.12 -0.17 0.13 -0.17 0.13 -0.17 0.13 -0.17 0.14 -0.16 0.14 -0.16 0.14 -0.16 0.14 -0.16 0.15 -0.15 0.15 -0.15 0.15 -0.15 0.16 -0.15 0.16 -0.14 0.16 -0.14 0.17 -0.14 0.17 -0.14 0.17 -0.13 0.17 -0.13 0.18 -0.13 0.18 -0.13 0.18 -0.12 0.19 -0.12 0.19 -0.12 0.19 -0.12 0.19 -0.11 0.2 -0.11 0.2 -0.11 0.2 -0.11 0.2 -0.1 0.21 -0.1 0.21 -0.1 0.21 -0.1 0 0zm8.04 -1.52l0 1.83 0 0 -0.27 0 -0.26 0 -0.26 0.01 -0.26 0.01 -0.26 0.01 -0.25 0.01 -0.25 0.02 -0.25 0.02 -0.25 0.02 -0.24 0.03 -0.24 0.03 -0.24 0.03 -0.24 0.03 -0.23 0.04 -0.23 0.04 -0.23 0.04 -0.23 0.04 -0.22 0.05 -0.22 0.05 -0.22 0.05 -0.22 0.05 -0.21 0.06 -0.21 0.06 -0.21 0.06 -0.21 0.07 -0.21 0.07 -0.2 0.07 -0.2 0.07 -0.2 0.08 -0.2 0.08 -0.19 0.08 -0.19 0.08 -0.72 -1.68 0.22 -0.09 0.22 -0.09 0.22 -0.09 0.22 -0.09 0.23 -0.08 0.23 -0.08 0.23 -0.08 0.23 -0.07 0.23 -0.07 0.24 -0.07 0.24 -0.06 0.24 -0.06 0.24 -0.06 0.25 -0.05 0.25 -0.05 0.25 -0.05 0.25 -0.05 0.25 -0.04 0.26 -0.04 0.26 -0.04 0.26 -0.03 0.26 -0.03 0.27 -0.03 0.27 -0.02 0.27 -0.02 0.27 -0.02 0.27 -0.02 0.28 -0.01 0.28 -0.01 0.28 -0.01 0.28 -0 0.29 -0 0 0zm6.64 1.01l-0.58 1.74 0 0 -0.16 -0.06 -0.16 -0.05 -0.16 -0.05 -0.17 -0.05 -0.17 -0.05 -0.17 -0.05 -0.17 -0.05 -0.17 -0.04 -0.18 -0.04 -0.18 -0.04 -0.18 -0.04 -0.18 -0.04 -0.18 -0.03 -0.18 -0.03 -0.19 -0.03 -0.19 -0.03 -0.19 -0.03 -0.19 -0.03 -0.19 -0.02 -0.2 -0.02 -0.2 -0.02 -0.2 -0.02 -0.2 -0.02 -0.2 -0.02 -0.2 -0.01 -0.21 -0.01 -0.21 -0.01 -0.21 -0.01 -0.21 -0.01 -0.21 -0 -0.22 -0 -0.22 -0 0 -1.83 0.23 0 0.23 0 0.23 0 0.23 0.01 0.23 0.01 0.22 0.01 0.22 0.01 0.22 0.01 0.22 0.02 0.22 0.02 0.22 0.02 0.21 0.02 0.21 0.02 0.21 0.03 0.21 0.03 0.21 0.03 0.21 0.03 0.21 0.03 0.2 0.04 0.2 0.04 0.2 0.04 0.2 0.04 0.2 0.04 0.2 0.05 0.19 0.05 0.19 0.05 0.19 0.05 0.19 0.05 0.19 0.06 0.19 0.06 0.18 0.06 0.18 0.06 0 0zm4.91 2.72l-1.15 1.41 0 0 -0.11 -0.09 -0.11 -0.09 -0.11 -0.09 -0.11 -0.09 -0.12 -0.09 -0.12 -0.09 -0.12 -0.09 -0.12 -0.08 -0.12 -0.08 -0.12 -0.08 -0.13 -0.08 -0.13 -0.08 -0.13 -0.08 -0.13 -0.08 -0.13 -0.08 -0.13 -0.08 -0.14 -0.07 -0.14 -0.07 -0.14 -0.07 -0.14 -0.07 -0.14 -0.07 -0.14 -0.07 -0.15 -0.07 -0.15 -0.07 -0.15 -0.07 -0.15 -0.06 -0.15 -0.06 -0.16 -0.06 -0.16 -0.06 -0.16 -0.06 -0.16 -0.06 -0.16 -0.06 0.58 -1.74 0.18 0.06 0.18 0.06 0.18 0.07 0.17 0.07 0.17 0.07 0.17 0.07 0.17 0.07 0.17 0.07 0.17 0.07 0.16 0.08 0.16 0.08 0.16 0.08 0.16 0.08 0.16 0.08 0.16 0.08 0.15 0.08 0.15 0.09 0.15 0.09 0.15 0.09 0.15 0.09 0.15 0.09 0.14 0.09 0.14 0.09 0.14 0.1 0.14 0.1 0.14 0.1 0.14 0.1 0.13 0.1 0.13 0.1 0.13 0.1 0.13 0.11 0.13 0.11 0 0zm3.06 3.65l-1.57 0.89 0 -0 -0.06 -0.1 -0.06 -0.1 -0.06 -0.1 -0.06 -0.1 -0.06 -0.1 -0.06 -0.1 -0.07 -0.1 -0.07 -0.1 -0.07 -0.1 -0.07 -0.1 -0.07 -0.1 -0.07 -0.1 -0.08 -0.1 -0.08 -0.1 -0.08 -0.1 -0.08 -0.1 -0.08 -0.1 -0.08 -0.1 -0.09 -0.1 -0.09 -0.1 -0.09 -0.1 -0.09 -0.1 -0.09 -0.1 -0.1 -0.1 -0.1 -0.1 -0.1 -0.1 -0.1 -0.1 -0.1 -0.1 -0.1 -0.09 -0.11 -0.1 -0.11 -0.1 -0.11 -0.09 1.15 -1.41 0.12 0.11 0.12 0.11 0.12 0.11 0.12 0.11 0.12 0.11 0.11 0.11 0.11 0.11 0.11 0.11 0.11 0.11 0.11 0.11 0.11 0.11 0.1 0.11 0.1 0.11 0.1 0.11 0.1 0.11 0.1 0.11 0.09 0.11 0.09 0.11 0.09 0.12 0.09 0.12 0.09 0.12 0.09 0.12 0.08 0.12 0.08 0.12 0.08 0.12 0.08 0.12 0.08 0.12 0.07 0.12 0.07 0.12 0.07 0.12 0.07 0.12 0.07 0.12 0 -0zm1.13 3.94l-1.8 0 0 0.03 -0 -0.09 -0.01 -0.09 -0.01 -0.09 -0.01 -0.09 -0.01 -0.09 -0.01 -0.09 -0.01 -0.09 -0.01 -0.09 -0.02 -0.09 -0.02 -0.09 -0.02 -0.09 -0.02 -0.09 -0.02 -0.09 -0.02 -0.1 -0.03 -0.1 -0.03 -0.1 -0.03 -0.1 -0.03 -0.1 -0.03 -0.1 -0.03 -0.1 -0.04 -0.1 -0.04 -0.1 -0.04 -0.1 -0.04 -0.1 -0.04 -0.1 -0.04 -0.1 -0.05 -0.1 -0.05 -0.1 -0.05 -0.1 -0.05 -0.1 -0.05 -0.1 -0.05 -0.1 1.57 -0.89 0.06 0.12 0.06 0.12 0.06 0.12 0.06 0.12 0.06 0.12 0.06 0.12 0.05 0.12 0.05 0.12 0.05 0.12 0.05 0.12 0.05 0.12 0.04 0.12 0.04 0.12 0.04 0.12 0.04 0.12 0.04 0.12 0.03 0.12 0.03 0.12 0.03 0.12 0.03 0.12 0.03 0.12 0.02 0.12 0.02 0.12 0.02 0.12 0.02 0.12 0.02 0.12 0.01 0.12 0.01 0.12 0.01 0.12 0.01 0.12 0.01 0.12 0 0.12 0 0.03zm-0 -0.03l0 0.01 0 0.02 -0 -0.03zm-0.55 1.42l-1.32 -1.24 -0 0 0.01 -0.01 0.01 -0.01 0.01 -0.01 0.01 -0.01 0.01 -0.01 0 -0.01 0 -0.01 0 -0.01 0 -0.01 0 -0.01 0 -0.01 0 -0 0 -0 0 -0 0 -0 0 -0 0 -0.01 0 -0 0 -0 0 -0 0 -0.01 0 -0 0 -0 0 -0 0 -0.01 0 -0 0 -0 0 -0.01 0 -0 0 -0 0 -0 0 -0.01 1.8 0 -0 0.05 -0 0.05 -0 0.05 -0 0.05 -0 0.05 -0.01 0.05 -0.01 0.05 -0.01 0.05 -0.01 0.05 -0.01 0.05 -0.01 0.05 -0.01 0.04 -0.01 0.05 -0.02 0.05 -0.02 0.05 -0.02 0.04 -0.02 0.04 -0.02 0.05 -0.02 0.04 -0.02 0.04 -0.02 0.04 -0.02 0.04 -0.02 0.04 -0.03 0.04 -0.03 0.04 -0.03 0.04 -0.03 0.04 -0.03 0.04 -0.03 0.04 -0.03 0.04 -0.03 0.04 -0.03 0.03 -0 0zm-1.44 0.64l0 -1.83 0 0 0.01 0 0.01 -0 0.01 -0 0.01 -0 0.01 -0 0.01 -0 0 -0 0 -0 0 -0 0 -0 0 -0 0 -0 0 -0 0 -0 0 -0 0 -0 0 -0 0 -0 0 -0 0 -0 0 -0 0 -0 0 -0 0 -0 0 -0 0 -0 0 -0 0 -0 0 -0 0 -0 0.01 -0.01 0.01 -0.01 1.32 1.24 -0.03 0.04 -0.03 0.04 -0.04 0.04 -0.04 0.03 -0.04 0.03 -0.04 0.03 -0.04 0.03 -0.04 0.03 -0.04 0.03 -0.04 0.03 -0.04 0.03 -0.04 0.03 -0.05 0.03 -0.05 0.02 -0.05 0.02 -0.05 0.02 -0.05 0.02 -0.05 0.02 -0.05 0.02 -0.05 0.02 -0.05 0.02 -0.05 0.01 -0.05 0.01 -0.05 0.01 -0.05 0.01 -0.05 0.01 -0.05 0.01 -0.05 0.01 -0.05 0 -0.05 0 -0.05 0 -0.05 0 0 0zm-6.89 -1.83l6.89 0 0 1.83 -6.89 0 0 0 0 -1.83zm-1.39 1.52l0.8 -1.64 0 0 0.01 0.01 0.01 0.01 0.01 0.01 0.02 0.01 0.01 0 0.01 0.01 0.01 0.01 0.01 0 0.02 0.01 0.02 0.01 0.01 0 0.02 0 0.02 0 0.02 0 0.02 0 0.02 0 0.02 0 0.02 0 0.02 0 0.02 0 0.02 0 0.02 0 0.02 0 0.02 0 0.02 0 0.02 0 0.02 0 0.02 0 0.03 0 0.02 0 0.03 0 0.03 0 0 1.83 -0.05 -0 -0.05 -0 -0.05 -0 -0.04 -0 -0.05 -0 -0.05 -0 -0.04 -0 -0.05 -0 -0.04 -0 -0.04 -0.01 -0.04 -0.01 -0.05 -0.01 -0.04 -0.01 -0.04 -0.01 -0.05 -0.01 -0.04 -0.01 -0.04 -0.01 -0.04 -0.01 -0.05 -0.01 -0.04 -0.01 -0.04 -0.01 -0.04 -0.01 -0.04 -0.01 -0.04 -0.01 -0.04 -0.02 -0.04 -0.02 -0.04 -0.02 -0.04 -0.02 -0.04 -0.02 -0.04 -0.02 -0.04 -0.02 -0.04 -0.02 0 0zm-1.2 -1.27l1.73 -0.48 -0.12 -0.27 0.01 0.02 0.01 0.02 0.01 0.02 0.01 0.02 0.01 0.02 0.01 0.02 0.01 0.02 0.01 0.01 0.01 0.01 0.01 0.02 0.01 0.01 0.01 0.01 0.01 0.01 0.01 0.01 0.01 0.01 0.01 0.01 0.01 0.01 0.01 0.01 0.01 0.01 0.01 0.01 0.01 0.01 0.01 0.01 0.01 0.01 0.01 0.01 0.01 0.01 0.01 0.01 0.01 0.01 0.01 0.01 0.01 0.01 0.01 0.01 0.01 0.01 0.01 0.01 -0.8 1.64 -0.04 -0.02 -0.04 -0.02 -0.04 -0.02 -0.04 -0.02 -0.04 -0.02 -0.04 -0.03 -0.04 -0.03 -0.04 -0.03 -0.04 -0.03 -0.04 -0.03 -0.04 -0.03 -0.04 -0.03 -0.04 -0.03 -0.04 -0.03 -0.03 -0.03 -0.03 -0.03 -0.03 -0.03 -0.03 -0.03 -0.03 -0.03 -0.03 -0.03 -0.03 -0.04 -0.03 -0.03 -0.03 -0.03 -0.03 -0.04 -0.03 -0.04 -0.03 -0.04 -0.03 -0.04 -0.03 -0.04 -0.03 -0.04 -0.03 -0.04 -0.03 -0.04 -0.03 -0.04 -0.12 -0.27zm0.12 0.27l-0.08 -0.12 -0.04 -0.14 0.12 0.27zm-1.39 -1.79l0.98 -1.54 0 0 0.09 0.06 0.09 0.06 0.09 0.07 0.09 0.07 0.09 0.07 0.09 0.07 0.08 0.07 0.08 0.07 0.08 0.07 0.08 0.07 0.08 0.07 0.07 0.08 0.07 0.08 0.07 0.08 0.07 0.08 0.07 0.08 0.06 0.08 0.06 0.08 0.06 0.08 0.06 0.08 0.05 0.09 0.05 0.09 0.05 0.09 0.05 0.09 0.05 0.09 0.04 0.09 0.04 0.09 0.04 0.09 0.04 0.09 0.03 0.1 0.03 0.1 0.03 0.1 -1.73 0.48 -0.01 -0.05 -0.02 -0.05 -0.02 -0.05 -0.02 -0.05 -0.02 -0.05 -0.02 -0.05 -0.02 -0.05 -0.02 -0.05 -0.03 -0.05 -0.03 -0.05 -0.03 -0.05 -0.03 -0.05 -0.03 -0.05 -0.03 -0.05 -0.04 -0.05 -0.04 -0.05 -0.04 -0.05 -0.04 -0.05 -0.04 -0.05 -0.05 -0.05 -0.05 -0.05 -0.05 -0.05 -0.05 -0.05 -0.05 -0.05 -0.06 -0.05 -0.06 -0.05 -0.06 -0.05 -0.06 -0.05 -0.06 -0.05 -0.07 -0.05 -0.07 -0.05 -0.07 -0.05 0 0zm-2.99 -0.73l0 -1.83 0 0 0.14 0 0.14 0 0.14 0 0.14 0.01 0.14 0.01 0.14 0.01 0.14 0.01 0.14 0.01 0.13 0.02 0.13 0.02 0.13 0.02 0.13 0.02 0.13 0.02 0.13 0.03 0.13 0.03 0.12 0.03 0.12 0.03 0.12 0.03 0.12 0.04 0.12 0.04 0.12 0.04 0.12 0.04 0.11 0.05 0.11 0.05 0.11 0.05 0.11 0.05 0.11 0.05 0.11 0.06 0.11 0.06 0.1 0.06 0.1 0.06 0.1 0.07 -0.98 1.54 -0.07 -0.04 -0.07 -0.04 -0.07 -0.04 -0.07 -0.04 -0.07 -0.04 -0.07 -0.04 -0.08 -0.04 -0.08 -0.03 -0.08 -0.03 -0.08 -0.03 -0.08 -0.03 -0.08 -0.03 -0.09 -0.03 -0.09 -0.03 -0.09 -0.03 -0.09 -0.02 -0.09 -0.02 -0.1 -0.02 -0.1 -0.02 -0.1 -0.02 -0.1 -0.02 -0.1 -0.02 -0.1 -0.01 -0.11 -0.01 -0.11 -0.01 -0.11 -0.01 -0.11 -0.01 -0.11 -0.01 -0.12 -0.01 -0.12 -0 -0.12 -0 -0.12 -0 0 0zm-3.1 0.68l-0.96 -1.55 0 0 0.1 -0.06 0.1 -0.06 0.1 -0.06 0.11 -0.06 0.11 -0.05 0.11 -0.05 0.11 -0.05 0.11 -0.05 0.11 -0.04 0.12 -0.04 0.12 -0.04 0.12 -0.04 0.12 -0.04 0.12 -0.03 0.12 -0.03 0.13 -0.03 0.13 -0.03 0.13 -0.03 0.13 -0.02 0.13 -0.02 0.13 -0.02 0.14 -0.02 0.14 -0.02 0.14 -0.02 0.14 -0.01 0.14 -0.01 0.14 -0.01 0.15 -0.01 0.15 -0.01 0.15 -0 0.15 -0 0.15 -0 0 1.83 -0.13 0 -0.13 0 -0.13 0 -0.13 0.01 -0.12 0.01 -0.12 0.01 -0.12 0.01 -0.12 0.01 -0.11 0.01 -0.11 0.01 -0.11 0.02 -0.11 0.02 -0.1 0.02 -0.1 0.02 -0.1 0.02 -0.1 0.02 -0.1 0.02 -0.09 0.02 -0.09 0.03 -0.09 0.03 -0.09 0.03 -0.08 0.03 -0.08 0.03 -0.08 0.03 -0.08 0.03 -0.07 0.03 -0.07 0.03 -0.07 0.03 -0.07 0.04 -0.07 0.04 -0.06 0.04 -0.06 0.04 0 0zm-0.86 1.76l-1.8 0 0 0 0 -0.13 0 -0.13 0.01 -0.13 0.01 -0.13 0.01 -0.12 0.02 -0.12 0.02 -0.12 0.02 -0.12 0.03 -0.12 0.03 -0.12 0.03 -0.12 0.04 -0.12 0.04 -0.11 0.05 -0.11 0.05 -0.11 0.05 -0.11 0.06 -0.11 0.06 -0.1 0.06 -0.1 0.07 -0.1 0.07 -0.1 0.07 -0.09 0.08 -0.09 0.08 -0.09 0.08 -0.09 0.09 -0.08 0.09 -0.08 0.09 -0.08 0.09 -0.08 0.1 -0.07 0.1 -0.07 0.1 -0.07 0.96 1.55 -0.06 0.04 -0.05 0.04 -0.05 0.04 -0.05 0.04 -0.05 0.04 -0.04 0.04 -0.04 0.04 -0.04 0.04 -0.04 0.04 -0.04 0.04 -0.03 0.04 -0.03 0.05 -0.03 0.05 -0.03 0.05 -0.03 0.05 -0.03 0.05 -0.03 0.05 -0.02 0.05 -0.02 0.05 -0.02 0.06 -0.02 0.06 -0.02 0.06 -0.02 0.06 -0.01 0.06 -0.01 0.07 -0.01 0.07 -0.01 0.07 -0.01 0.07 -0.01 0.08 -0 0.08 -0 0.08 -0 0.08 0 0zm0.47 1.25l-1.34 1.23 0 0 -0.06 -0.06 -0.05 -0.07 -0.05 -0.07 -0.05 -0.07 -0.05 -0.07 -0.05 -0.07 -0.05 -0.07 -0.05 -0.07 -0.04 -0.07 -0.04 -0.07 -0.04 -0.07 -0.04 -0.08 -0.04 -0.08 -0.03 -0.08 -0.03 -0.08 -0.03 -0.08 -0.03 -0.08 -0.03 -0.08 -0.03 -0.08 -0.02 -0.08 -0.02 -0.08 -0.02 -0.08 -0.02 -0.08 -0.02 -0.08 -0.01 -0.08 -0.01 -0.08 -0.01 -0.08 -0.01 -0.09 -0.01 -0.08 -0 -0.09 -0 -0.09 -0 -0.09 1.8 0 0 0.05 0 0.05 0 0.05 0 0.04 0 0.04 0.01 0.04 0.01 0.04 0.01 0.04 0.01 0.04 0.01 0.04 0.01 0.04 0.01 0.04 0.01 0.04 0.01 0.04 0.01 0.04 0.01 0.04 0.01 0.04 0.02 0.04 0.02 0.04 0.02 0.04 0.02 0.04 0.02 0.04 0.02 0.04 0.02 0.04 0.02 0.04 0.02 0.04 0.03 0.04 0.03 0.04 0.03 0.04 0.03 0.04 0.03 0.04 0.03 0.04 0 0zm1.98 1.13l-0.59 1.73 0 0 -0.11 -0.04 -0.11 -0.04 -0.11 -0.04 -0.1 -0.04 -0.1 -0.04 -0.1 -0.04 -0.1 -0.04 -0.1 -0.04 -0.1 -0.04 -0.1 -0.05 -0.09 -0.05 -0.09 -0.05 -0.09 -0.05 -0.09 -0.05 -0.09 -0.05 -0.09 -0.05 -0.08 -0.05 -0.08 -0.05 -0.08 -0.05 -0.08 -0.05 -0.08 -0.05 -0.08 -0.05 -0.07 -0.06 -0.07 -0.06 -0.07 -0.06 -0.07 -0.06 -0.07 -0.06 -0.07 -0.06 -0.07 -0.06 -0.06 -0.06 -0.06 -0.07 -0.06 -0.07 1.34 -1.23 0.03 0.03 0.03 0.03 0.03 0.03 0.04 0.03 0.04 0.03 0.04 0.04 0.04 0.04 0.04 0.04 0.05 0.04 0.05 0.04 0.05 0.04 0.05 0.04 0.05 0.04 0.06 0.04 0.06 0.04 0.06 0.04 0.06 0.04 0.07 0.04 0.07 0.04 0.07 0.04 0.07 0.04 0.07 0.04 0.08 0.04 0.08 0.04 0.08 0.04 0.08 0.04 0.08 0.04 0.09 0.04 0.09 0.03 0.09 0.03 0.09 0.03 0.09 0.03 0 0zm4.39 1.19l-0.33 1.8 -0.03 -0.01 -0.18 -0.04 -0.18 -0.04 -0.18 -0.04 -0.17 -0.04 -0.17 -0.04 -0.17 -0.04 -0.17 -0.04 -0.16 -0.04 -0.16 -0.04 -0.16 -0.04 -0.16 -0.04 -0.15 -0.04 -0.15 -0.04 -0.15 -0.04 -0.15 -0.04 -0.15 -0.04 -0.14 -0.04 -0.14 -0.04 -0.14 -0.04 -0.14 -0.04 -0.13 -0.04 -0.13 -0.04 -0.13 -0.04 -0.13 -0.04 -0.12 -0.04 -0.12 -0.04 -0.12 -0.04 -0.12 -0.04 -0.12 -0.04 -0.11 -0.04 -0.11 -0.04 -0.11 -0.04 0.59 -1.73 0.1 0.03 0.1 0.04 0.1 0.04 0.11 0.04 0.11 0.04 0.11 0.04 0.11 0.04 0.12 0.04 0.12 0.04 0.12 0.04 0.12 0.04 0.13 0.04 0.13 0.04 0.13 0.04 0.13 0.04 0.14 0.04 0.14 0.04 0.14 0.04 0.14 0.04 0.15 0.04 0.15 0.04 0.15 0.04 0.15 0.04 0.16 0.04 0.16 0.04 0.16 0.04 0.16 0.04 0.17 0.04 0.17 0.04 0.17 0.04 0.17 0.04 0.18 0.04 -0.03 -0.01zm-0.33 1.8l-0.02 -0 -0.01 -0 0.03 0.01zm8.22 0.53l-0.74 1.67 0 0 -0.18 -0.08 -0.18 -0.08 -0.18 -0.08 -0.19 -0.08 -0.19 -0.08 -0.19 -0.08 -0.2 -0.08 -0.2 -0.08 -0.21 -0.07 -0.21 -0.07 -0.21 -0.07 -0.22 -0.07 -0.22 -0.07 -0.22 -0.07 -0.23 -0.07 -0.23 -0.07 -0.24 -0.07 -0.24 -0.07 -0.24 -0.07 -0.25 -0.07 -0.25 -0.07 -0.25 -0.06 -0.26 -0.06 -0.26 -0.06 -0.26 -0.06 -0.27 -0.06 -0.27 -0.06 -0.28 -0.06 -0.28 -0.06 -0.28 -0.06 -0.29 -0.06 -0.29 -0.06 0.33 -1.8 0.3 0.06 0.3 0.06 0.29 0.06 0.29 0.06 0.29 0.06 0.28 0.06 0.28 0.06 0.28 0.06 0.27 0.07 0.27 0.07 0.27 0.07 0.26 0.07 0.26 0.07 0.25 0.07 0.25 0.07 0.25 0.07 0.24 0.07 0.24 0.07 0.24 0.08 0.23 0.08 0.23 0.08 0.23 0.08 0.22 0.08 0.22 0.08 0.22 0.08 0.21 0.08 0.21 0.08 0.21 0.08 0.2 0.09 0.2 0.09 0.2 0.09 0.19 0.09 0 0zm4.67 3.86l-1.51 0.99 0 0 -0.08 -0.12 -0.08 -0.12 -0.08 -0.12 -0.08 -0.11 -0.09 -0.11 -0.09 -0.11 -0.09 -0.11 -0.1 -0.11 -0.1 -0.11 -0.1 -0.11 -0.1 -0.11 -0.11 -0.1 -0.11 -0.1 -0.11 -0.1 -0.12 -0.1 -0.12 -0.1 -0.12 -0.1 -0.13 -0.1 -0.13 -0.1 -0.13 -0.1 -0.14 -0.09 -0.14 -0.09 -0.14 -0.09 -0.14 -0.09 -0.15 -0.09 -0.15 -0.09 -0.15 -0.09 -0.16 -0.09 -0.16 -0.08 -0.16 -0.08 -0.17 -0.08 -0.17 -0.08 0.74 -1.67 0.19 0.09 0.19 0.09 0.19 0.09 0.18 0.1 0.18 0.1 0.18 0.1 0.18 0.1 0.17 0.1 0.17 0.11 0.17 0.11 0.16 0.11 0.16 0.11 0.16 0.11 0.15 0.12 0.15 0.12 0.15 0.12 0.14 0.12 0.14 0.12 0.14 0.13 0.14 0.13 0.13 0.13 0.13 0.13 0.13 0.13 0.12 0.14 0.12 0.14 0.12 0.14 0.11 0.14 0.11 0.14 0.11 0.14 0.1 0.15 0.1 0.15 0.1 0.15 0 0zm1.5 5.91l-1.8 0 0 0 -0 -0.19 -0 -0.19 -0.01 -0.18 -0.01 -0.18 -0.01 -0.18 -0.01 -0.18 -0.02 -0.18 -0.02 -0.17 -0.02 -0.17 -0.02 -0.17 -0.03 -0.17 -0.03 -0.16 -0.03 -0.16 -0.03 -0.16 -0.03 -0.16 -0.04 -0.15 -0.04 -0.15 -0.04 -0.15 -0.04 -0.15 -0.05 -0.15 -0.05 -0.14 -0.05 -0.14 -0.05 -0.14 -0.06 -0.14 -0.06 -0.13 -0.06 -0.13 -0.06 -0.13 -0.06 -0.13 -0.07 -0.13 -0.07 -0.12 -0.07 -0.12 -0.07 -0.12 1.51 -0.99 0.09 0.15 0.09 0.16 0.09 0.16 0.08 0.16 0.08 0.16 0.08 0.16 0.08 0.17 0.07 0.17 0.07 0.17 0.07 0.17 0.06 0.17 0.06 0.18 0.06 0.18 0.05 0.18 0.05 0.18 0.05 0.18 0.05 0.19 0.04 0.19 0.04 0.19 0.04 0.19 0.03 0.19 0.03 0.2 0.03 0.2 0.02 0.2 0.02 0.2 0.02 0.2 0.02 0.21 0.01 0.21 0.01 0.21 0.01 0.21 0 0.21 0 0.21 0 0zm-2.2 6.83l-1.42 -1.13 0 -0 0.11 -0.15 0.11 -0.15 0.1 -0.15 0.1 -0.16 0.1 -0.16 0.09 -0.16 0.09 -0.16 0.09 -0.16 0.08 -0.16 0.08 -0.17 0.08 -0.17 0.07 -0.17 0.07 -0.17 0.07 -0.17 0.06 -0.17 0.06 -0.18 0.06 -0.18 0.05 -0.18 0.05 -0.18 0.04 -0.18 0.04 -0.19 0.04 -0.19 0.03 -0.19 0.03 -0.19 0.03 -0.19 0.02 -0.2 0.02 -0.2 0.02 -0.2 0.01 -0.2 0.01 -0.21 0.01 -0.21 0 -0.21 1.8 0 -0 0.24 -0.01 0.24 -0.01 0.24 -0.01 0.24 -0.02 0.24 -0.02 0.23 -0.03 0.23 -0.03 0.23 -0.04 0.23 -0.04 0.23 -0.04 0.22 -0.05 0.22 -0.05 0.22 -0.06 0.22 -0.06 0.22 -0.07 0.22 -0.07 0.21 -0.08 0.21 -0.08 0.21 -0.08 0.21 -0.09 0.21 -0.09 0.2 -0.1 0.2 -0.1 0.2 -0.11 0.2 -0.11 0.19 -0.11 0.19 -0.12 0.19 -0.12 0.19 -0.13 0.19 -0.13 0.18 -0.14 0.18 0 -0zm-5.95 4.32l-0.64 -1.71 -0 0 0.21 -0.08 0.21 -0.09 0.2 -0.09 0.2 -0.09 0.2 -0.09 0.19 -0.09 0.19 -0.1 0.19 -0.1 0.18 -0.1 0.18 -0.1 0.18 -0.1 0.17 -0.11 0.17 -0.11 0.17 -0.11 0.17 -0.11 0.16 -0.12 0.16 -0.12 0.16 -0.12 0.15 -0.12 0.15 -0.12 0.15 -0.13 0.15 -0.13 0.14 -0.13 0.14 -0.13 0.14 -0.13 0.13 -0.14 0.13 -0.14 0.13 -0.14 0.13 -0.14 0.12 -0.15 0.12 -0.15 0.12 -0.15 1.42 1.13 -0.14 0.18 -0.14 0.17 -0.14 0.17 -0.15 0.17 -0.15 0.17 -0.15 0.16 -0.16 0.16 -0.16 0.16 -0.16 0.16 -0.17 0.15 -0.17 0.15 -0.17 0.15 -0.18 0.14 -0.18 0.14 -0.18 0.14 -0.19 0.14 -0.19 0.13 -0.19 0.13 -0.19 0.13 -0.2 0.13 -0.2 0.12 -0.2 0.12 -0.21 0.12 -0.21 0.11 -0.21 0.11 -0.21 0.11 -0.22 0.11 -0.22 0.1 -0.22 0.1 -0.23 0.1 -0.23 0.1 -0.23 0.09 -0 0zm-8.47 1.45l0 -1.83 0 0 0.28 -0 0.28 -0 0.27 -0.01 0.27 -0.01 0.27 -0.01 0.27 -0.01 0.26 -0.02 0.26 -0.02 0.26 -0.02 0.26 -0.02 0.26 -0.03 0.25 -0.03 0.25 -0.03 0.25 -0.04 0.25 -0.04 0.25 -0.04 0.24 -0.04 0.24 -0.05 0.24 -0.05 0.24 -0.05 0.23 -0.05 0.23 -0.06 0.23 -0.06 0.23 -0.06 0.23 -0.06 0.22 -0.07 0.22 -0.07 0.22 -0.07 0.22 -0.07 0.22 -0.08 0.21 -0.08 0.21 -0.08 0.64 1.71 -0.23 0.09 -0.24 0.09 -0.24 0.08 -0.24 0.08 -0.24 0.08 -0.24 0.08 -0.25 0.07 -0.25 0.07 -0.25 0.07 -0.25 0.06 -0.25 0.06 -0.26 0.06 -0.26 0.05 -0.26 0.05 -0.26 0.05 -0.26 0.05 -0.27 0.04 -0.27 0.04 -0.27 0.04 -0.27 0.04 -0.27 0.03 -0.28 0.03 -0.28 0.03 -0.28 0.02 -0.28 0.02 -0.28 0.02 -0.28 0.02 -0.29 0.01 -0.29 0.01 -0.29 0.01 -0.29 0 -0.29 0 0 0z"/>
  </g>
  <path id="_1_0" class="fil5" d="M25.77 44.94c-3.48,0 -6.37,-0.51 -8.67,-1.52 -2.3,-1.01 -4.04,-2.34 -5.22,-3.97 -1.18,-1.64 -1.81,-3.38 -1.88,-5.23 0,-0.28 0.11,-0.54 0.34,-0.77 0.23,-0.23 0.5,-0.35 0.81,-0.35l6.58 0c0.49,0 0.86,0.09 1.12,0.27 0.26,0.18 0.5,0.41 0.71,0.69 0.28,0.53 0.67,1.05 1.18,1.55 0.5,0.5 1.17,0.9 1.98,1.2 0.82,0.3 1.84,0.45 3.06,0.45 2.02,0 3.54,-0.32 4.57,-0.96 1.03,-0.64 1.54,-1.51 1.54,-2.61 0,-0.78 -0.28,-1.43 -0.84,-1.95 -0.56,-0.52 -1.45,-0.98 -2.69,-1.39 -1.24,-0.41 -2.88,-0.83 -4.94,-1.25 -2.65,-0.57 -4.9,-1.31 -6.76,-2.21 -1.86,-0.91 -3.28,-2.1 -4.26,-3.57 -0.98,-1.48 -1.46,-3.32 -1.46,-5.52 0,-2.17 0.6,-4.11 1.8,-5.81 1.2,-1.71 2.88,-3.04 5.04,-4 2.16,-0.96 4.72,-1.44 7.68,-1.44 2.4,0 4.52,0.32 6.35,0.96 1.83,0.64 3.37,1.49 4.62,2.56 1.25,1.07 2.2,2.2 2.85,3.39 0.64,1.19 0.98,2.36 1.02,3.49 0,0.28 -0.1,0.54 -0.31,0.77 -0.21,0.23 -0.47,0.35 -0.78,0.35l-6.89 0c-0.38,0 -0.71,-0.07 -0.99,-0.21 -0.28,-0.14 -0.52,-0.37 -0.73,-0.69 -0.21,-0.78 -0.76,-1.47 -1.65,-2.05 -0.89,-0.59 -2.05,-0.88 -3.47,-0.88 -1.53,0 -2.72,0.28 -3.58,0.83 -0.85,0.55 -1.28,1.4 -1.28,2.53 0,0.71 0.23,1.33 0.71,1.87 0.47,0.53 1.25,1 2.35,1.39 1.1,0.39 2.6,0.8 4.52,1.23 3.17,0.6 5.73,1.36 7.68,2.27 1.95,0.91 3.38,2.08 4.28,3.52 0.91,1.44 1.36,3.24 1.36,5.41 0,2.42 -0.67,4.51 -2.01,6.27 -1.34,1.76 -3.2,3.1 -5.56,4.03 -2.37,0.92 -5.08,1.39 -8.15,1.39z"/>
 </g>
</svg>
